<?xml version="1.0" standalone="no"?>
<!DOCTYPE svg PUBLIC "-//W3C//DTD SVG 20010904//EN"
 "http://www.w3.org/TR/2001/REC-SVG-20010904/DTD/svg10.dtd">
<svg version="1.0" xmlns="http://www.w3.org/2000/svg"
 width="1280.000000pt" height="624.000000pt" viewBox="0 0 1280.000000 624.000000"
 preserveAspectRatio="xMidYMid meet">
<metadata>
Created by potrace 1.15, written by Peter Selinger 2001-2017
</metadata>
<g transform="translate(0.000000,624.000000) scale(0.100000,-0.100000)"
fill="#000000" stroke="none">
<path d="M1723 5806 c-69 -17 -132 -62 -151 -106 -19 -46 -12 -112 21 -180 14
-30 25 -54 24 -55 -19 -3 -110 -59 -142 -88 -51 -44 -69 -90 -60 -150 10 -62
48 -105 124 -140 57 -27 78 -32 147 -32 l81 0 -26 -40 c-14 -22 -29 -41 -33
-43 -5 -2 -8 -7 -8 -11 0 -5 -18 -41 -40 -82 -22 -40 -55 -118 -72 -173 -17
-56 -34 -105 -38 -111 -14 -18 -41 -188 -48 -302 l-7 -114 -587 1 -588 0 0
-1282 0 -1283 828 3 828 3 34 -178 c18 -98 38 -184 44 -192 7 -8 11 -59 11
-126 0 -111 -1 -114 -38 -186 -66 -127 -180 -193 -333 -193 -114 0 -180 33
-222 113 -13 25 -1 54 12 32 11 -17 103 -13 134 6 107 66 145 148 122 261 -10
49 -19 64 -62 105 -28 26 -53 45 -56 42 -3 -3 -11 0 -18 6 -17 14 -113 23
-156 15 -50 -9 -114 -69 -150 -140 -37 -72 -49 -186 -28 -252 38 -115 178
-227 318 -255 79 -15 216 -6 268 17 22 9 41 18 44 19 42 14 71 34 120 81 45
42 63 69 81 117 12 34 27 68 32 74 5 7 7 24 5 38 -3 14 -1 28 3 31 11 6 12 58
2 68 -4 4 -6 24 -4 45 1 22 -2 47 -8 58 -9 15 -71 350 -71 383 0 7 646 10
1965 10 l1965 0 -2 -280 -3 -281 -475 -2 -475 -2 -3 -22 -3 -23 287 0 287 0
-74 -37 c-80 -40 -163 -115 -191 -173 -45 -94 -52 -118 -52 -175 0 -123 81
-211 212 -231 62 -9 225 12 270 35 88 45 223 185 239 248 3 13 9 23 14 23 5 0
9 70 9 155 l0 155 126 0 c124 0 125 0 122 23 -3 21 -7 22 -123 24 l-120 1 -3
281 -2 281 520 0 c286 0 520 -2 520 -4 0 -2 -119 -113 -265 -246 l-265 -243 0
-45 0 -46 48 45 c89 86 410 379 415 379 2 0 32 27 66 60 35 33 66 60 70 60 4
0 16 9 26 20 18 20 31 20 2827 20 l2808 0 0 25 0 25 -2778 2 -2778 3 319 293
319 292 1094 0 1094 0 0 -160 0 -160 25 0 25 0 0 160 0 160 1340 0 c1333 0
1340 0 1340 20 0 20 -7 20 -1340 20 l-1340 0 0 290 0 290 1340 0 1340 0 0 25
0 25 -1340 0 -1340 0 0 290 0 290 1340 0 c1333 0 1340 0 1340 20 0 20 -7 20
-1340 20 l-1340 0 0 180 0 180 35 -20 c19 -11 52 -30 72 -41 40 -23 140 -37
170 -24 10 4 32 7 49 6 18 -1 35 2 39 8 3 6 13 11 20 11 68 0 235 139 276 230
l23 50 998 0 998 0 0 25 0 25 -992 0 -993 0 3 27 c7 56 -20 144 -53 177 -74
74 -174 97 -310 73 -136 -25 -277 -125 -333 -237 l-20 -40 -3993 0 -3994 0 3
88 c2 48 8 100 14 115 8 20 8 34 0 50 -6 12 -13 67 -16 122 -5 101 -46 327
-65 362 -5 10 -20 47 -31 83 -12 36 -35 83 -50 106 -27 38 -28 43 -14 62 8 12
12 22 8 22 -5 0 -3 5 4 12 28 28 6 111 -50 191 -11 16 -19 29 -17 30 2 2 18 9
34 17 17 8 51 36 78 62 42 42 47 52 47 92 0 73 -57 158 -132 197 -49 25 -140
32 -205 15z m205 -74 c24 -24 40 -47 37 -52 -3 -5 -1 -11 5 -15 5 -3 10 -17
10 -30 0 -13 -5 -27 -10 -30 -6 -4 -8 -10 -5 -15 3 -5 1 -11 -5 -15 -5 -3 -10
-14 -10 -23 0 -20 -59 -82 -78 -82 -30 0 -167 143 -156 162 2 3 0 9 -6 13 -23
14 -10 58 28 94 34 33 43 36 92 35 51 0 58 -4 98 -42z m-194 -392 c81 -85 96
-111 96 -166 0 -29 -6 -38 -40 -59 -55 -35 -136 -34 -205 3 -27 15 -56 38 -63
52 -19 37 -11 143 13 171 27 30 95 79 110 79 7 0 47 -36 89 -80z m214 -516
c51 -14 92 -182 92 -379 0 -105 -20 -239 -38 -257 -9 -9 -390 -13 -399 -4 -6
5 16 125 27 151 5 11 14 40 20 65 36 146 113 310 181 381 45 49 65 56 117 43z
m-443 -771 c11 -130 36 -297 45 -308 5 -6 12 -29 16 -51 6 -39 4 -43 -47 -92
l-54 -52 -545 3 -545 2 -3 275 c-1 151 0 280 3 287 3 10 122 13 564 13 l559 0
7 -77z m475 72 c0 -22 -173 -255 -189 -255 -5 0 -11 -9 -14 -19 -2 -11 -23
-31 -45 -45 -23 -14 -51 -39 -63 -56 -20 -27 -23 -28 -34 -12 -24 34 -57 335
-42 376 6 14 31 16 197 16 104 0 190 -2 190 -5z m8090 -285 l0 -290 -380 0
-379 0 128 120 c71 66 132 120 136 120 3 0 47 37 96 82 85 79 89 84 89 125 0
24 -2 43 -5 43 -3 0 -19 -16 -36 -35 -17 -19 -36 -35 -42 -35 -6 0 -33 -22
-61 -50 -28 -27 -130 -122 -226 -209 l-175 -160 -3657 -1 c-2095 0 -3658 4
-3658 9 0 5 20 44 44 87 23 44 55 115 70 159 15 44 31 89 36 100 13 26 37 122
45 179 l7 46 3984 0 3984 0 0 -290z m-8650 -334 c0 -3 -25 -28 -55 -57 -30
-28 -55 -56 -55 -61 0 -6 -28 -42 -63 -82 -112 -126 -189 -237 -235 -338 l-17
-38 -312 0 -313 0 0 283 c0 156 3 287 7 290 7 8 1043 10 1043 3z m7730 -4 c0
-10 -315 -302 -326 -302 -4 0 -30 -22 -58 -49 -28 -27 -93 -88 -145 -135 l-95
-86 -3368 0 -3368 0 -5 23 c-3 12 -14 72 -24 132 -11 61 -25 130 -31 155 -19
78 -18 81 64 178 l79 92 3638 0 c2002 0 3639 -4 3639 -8z m920 -282 l0 -290
-722 0 -722 0 44 45 c24 25 48 45 53 45 5 0 128 110 275 245 l266 245 403 0
403 0 0 -290z m-8393 -91 c13 -68 28 -132 33 -141 6 -10 10 -27 10 -38 0 -19
-6 -20 -200 -20 -130 0 -200 4 -200 10 0 16 312 321 324 317 6 -2 21 -59 33
-128z m-706 -263 c-50 -60 -73 -340 -44 -529 l6 -37 -279 2 -279 3 -3 288 -3
287 307 0 c257 0 305 -2 295 -14z m666 -1 c-50 -19 -71 -34 -139 -102 -102
-101 -165 -262 -156 -400 l4 -63 -128 0 -128 0 0 93 c0 85 17 183 40 232 5 11
24 54 43 95 19 41 49 94 66 118 l31 42 203 -1 c184 0 199 -2 164 -14z m4351
-272 l-3 -288 -1777 -3 -1778 -2 0 52 c0 75 -23 163 -61 233 -18 33 -37 70
-44 81 -32 61 -141 151 -235 193 l-45 21 1973 0 1972 0 -2 -287z m2481 284
c-2 -2 -115 -106 -251 -230 -136 -125 -250 -227 -254 -227 -4 0 -35 -27 -70
-60 l-62 -60 -901 0 -901 0 0 290 0 290 1222 0 c672 0 1219 -1 1217 -3z m1601
-287 l0 -290 -1065 0 c-586 0 -1065 2 -1065 5 0 8 35 41 51 48 8 4 140 123
294 266 l280 260 753 1 752 0 0 -290z m-8058 4 c86 -30 195 -137 233 -228 29
-69 34 -67 -157 -64 l-172 3 -16 85 c-8 47 -18 90 -21 95 -4 6 -10 30 -14 55
-3 25 -9 53 -12 64 -5 17 0 18 58 11 35 -4 80 -13 101 -21z m-223 3 c6 -8 8
-17 4 -20 -3 -4 -1 -17 5 -30 10 -20 42 -198 42 -233 0 -12 -30 -14 -180 -14
l-180 0 0 25 c0 60 40 133 107 194 80 74 175 110 202 78z m-829 -384 c60 -133
148 -273 172 -273 5 0 12 -9 16 -19 9 -25 139 -124 222 -171 55 -31 126 -56
215 -74 11 -2 -258 -4 -598 -5 l-618 -1 1 289 c1 159 4 292 7 295 4 3 131 6
284 6 l278 0 21 -47z m400 32 c0 -21 46 -110 82 -162 47 -65 150 -133 204
-133 40 0 38 22 -4 31 -4 1 -26 15 -50 31 -46 32 -96 110 -107 167 -4 20 -11
41 -17 48 -23 28 6 33 192 33 211 0 194 7 205 -86 4 -32 12 -64 17 -71 5 -6 8
-17 7 -25 -1 -7 0 -20 4 -28 5 -15 47 -252 47 -269 0 -40 -259 -48 -393 -12
-117 31 -207 83 -292 168 -73 73 -135 175 -149 246 -3 15 -8 38 -11 52 l-5 25
135 0 c115 0 135 -2 135 -15z m910 -37 c-1 -161 -70 -288 -213 -392 -43 -32
-39 -38 -62 99 -9 55 -21 109 -26 121 -6 11 -9 24 -8 30 1 5 0 16 -3 24 -8 21
-28 129 -28 152 0 17 12 18 170 18 l170 0 0 -52z m3718 -245 l2 -293 -1974 0
c-1791 0 -1974 1 -1980 16 -12 32 -4 43 62 82 37 22 76 49 86 61 11 12 25 21
32 21 13 0 124 121 124 136 0 5 11 26 25 47 14 20 23 37 20 37 -3 0 1 10 9 23
8 12 20 55 27 95 l13 72 1776 -2 1775 -3 3 -292z m1767 269 c-92 -88 -514
-472 -519 -472 -3 0 -24 -20 -47 -45 l-42 -45 -558 0 -559 0 0 295 0 295 877
0 878 0 -30 -28z m-5791 -547 c4 -12 -6 -15 -62 -14 l-67 1 55 13 c30 7 58 13
61 14 4 0 9 -6 13 -14z m4024 -698 c2 -10 1 -25 -2 -33 -5 -12 -11 -10 -33 10
-15 15 -33 26 -40 26 -7 0 -13 5 -13 11 0 6 17 9 42 7 32 -2 44 -8 46 -21z"/>
</g>
</svg>
