<?xml version="1.0" encoding="utf-8"?>
<!-- Generator: Adobe Illustrator 16.0.0, SVG Export Plug-In . SVG Version: 6.00 Build 0)  -->
<!DOCTYPE svg PUBLIC "-//W3C//DTD SVG 1.1//EN" "http://www.w3.org/Graphics/SVG/1.1/DTD/svg11.dtd">
<svg version="1.1" id="Warstwa_1" xmlns="http://www.w3.org/2000/svg" xmlns:xlink="http://www.w3.org/1999/xlink" x="0px" y="0px"
	 width="50.542px" height="50px" viewBox="538.125 615 50.542 50" enable-background="new 538.125 615 50.542 50"
	 xml:space="preserve">
<g transform="translate(0.000000,1280.000000) scale(0.100000,-0.100000)">
	<path d="M5626.018,6578.388c-1.133-0.522-4.863-5.425-10.176-13.33c-7.207-10.732-12.891-17.671-22.549-27.534
		c-20.127-20.532-43.257-36.538-71.021-49.17c-2.563-1.162-5.918-2.827-7.437-3.701c-20.122-11.431-33.301-33.892-38.76-66.089
		c-3.848-22.549-3.379-51.689,1.167-74.063c0.962-4.814,2.329-9.658,3.184-11.299c0.728-1.455,1.948-2.402,2.744-2.168
		c2.236,0.664,3.398,3.682,6.733,17.031c6.499,26.133,13.271,40.801,23.472,51.074c5.547,5.566,10.649,8.628,19.458,11.665
		c5.859,2.012,10.264,3.066,25.605,6.094c13.74,2.71,21.411,4.985,28.286,8.315c4.146,2.012,8.315,4.722,10.415,6.768
		c1.636,1.602,2.51,1.836,2.158,0.552c-0.176-0.552-2.71-21.03-8.188-65.933c-1.201-9.785-3.618-29.678-5.396-44.199
		c-1.787-14.531-3.735-30.596-4.38-35.723c-0.61-5.137-1.548-12.695-2.036-16.777c-1.206-9.541-1.226-13.271-0.146-17.676
		c1.543-6.445,5.073-12.334,10.938-18.223c5.249-5.283,10.41-9.16,17.637-13.242c14.229-8.066,30.928-12.773,52.51-14.785
		c5.244-0.469,21.328-0.469,25.801,0c12.764,1.387,22.256,3.613,31.777,7.412c15.391,6.123,26.016,14.424,30.957,24.209
		c2.461,4.863,3.516,9.336,3.516,14.961c0,9.59-3.75,17.646-12.109,25.957c-13.145,13.027-33.867,22.393-57.773,26.074
		c-16.797,2.598-34.258,2.598-48.867,0c-12.109-2.148-24.102-6.631-32.891-12.266c-0.996-0.664-1.87-1.152-1.958-1.094
		c-0.059,0.078,1.841,16.074,4.263,35.547c2.383,19.473,7.695,62.793,11.777,96.245s9.004,73.613,10.947,89.253
		c5.518,45.146,6.406,52.935,6.406,56.836C5632.082,6576.23,5629.553,6580.107,5626.018,6578.388z"/>
	<path d="M5763.586,6542.978c-0.586-0.781-1.475-2.036-2.021-2.856c-2.734-4.102-8.125-9.653-12.813-13.179
		c-3.672-2.744-6.865-4.639-11.855-7.119c-4.707-2.305-6.875-4.087-8.965-7.231c-2.314-3.467-4.004-8.257-4.883-13.887
		c-0.879-5.425-0.313-16.563,1.055-21.055c0.898-3.062,1.514-2.417,3.047,3.271c2.09,7.432,3.652,10.845,6.367,13.643
		c2.402,2.485,4.727,3.472,10.967,4.761c6.543,1.309,9.404,2.3,11.758,4.077c0.498,0.376,0.967,0.698,1.016,0.698
		s-0.586-5.601-1.416-12.451c-4.883-39.868-4.57-36.689-3.457-39.111c0.967-2.095,2.148-3.496,4.473-5.22
		c3.584-2.739,8.018-4.575,13.203-5.542c3.691-0.669,12.051-0.669,15.059,0c6.895,1.572,11.953,4.697,13.789,8.516
		c0.986,2.1,1.016,5.547,0.029,7.583c-1.865,3.794-6.885,7.437-12.734,9.282c-4.541,1.421-7.119,1.772-12.949,1.772
		c-4.873-0.029-5.674-0.083-8.33-0.791c-1.602-0.43-3.926-1.309-5.215-1.948c-1.289-0.645-2.373-1.113-2.402-1.079
		c-0.049,0.059,1.563,13.325,3.555,29.512c6.113,50.078,5.801,47.275,5.41,48.594
		C5765.783,6544.848,5764.924,6544.765,5763.586,6542.978z"/>
	<path d="M5693.996,6444.838c-0.322-0.386-1.152-1.514-1.846-2.568c-1.826-2.744-6.943-7.725-10.176-9.883
		c-1.543-1.021-4.18-2.568-5.967-3.442c-5.225-2.627-7.51-5.308-9.072-10.737c-1.543-5.361-1.523-13.472,0.029-18.862
		c0.322-1.055,0.957-0.532,1.436,1.162c2.324,8.433,4.072,11.372,7.559,12.896c0.693,0.293,3.027,0.928,5.273,1.431
		c3.975,0.898,6.768,1.919,7.813,2.881c0.508,0.464,0.508,0.439,0.371-0.229c-0.078-0.415-1.016-7.905-2.07-16.66
		c-2.148-17.661-2.139-17.183-0.293-19.556c1.758-2.344,4.99-4.141,9.629-5.439c2.578-0.723,10.742-0.693,13.066,0.029
		c3.975,1.23,6.699,3.066,7.842,5.283c0.85,1.611,0.85,3.994,0.039,5.566c-3.447,6.572-17.744,9.634-26.24,5.576l-2.109-1.016
		l0.137,0.781c0.117,0.645,4.707,38.232,5.977,49.004c0.273,2.236,0.273,3.145,0.039,3.696
		C5695.021,6445.659,5694.768,6445.659,5693.996,6444.838z"/>
</g>
</svg>
